<?xml version="1.0" encoding="utf-8"?>
<!-- Generator: Adobe Illustrator 25.4.1, SVG Export Plug-In . SVG Version: 6.00 Build 0)  -->
<svg version="1.1" id="Calque_1" xmlns="http://www.w3.org/2000/svg" xmlns:xlink="http://www.w3.org/1999/xlink" x="0px" y="0px"
	 viewBox="0 0 728.56 440.29" style="enable-background:new 0 0 728.56 440.29;" xml:space="preserve">
<style type="text/css">
	.st0{fill:#231F20;}
	.st1{fill:#000096;}
	.st2{fill:#F50000;}
	.st3{fill:#939598;}
	.st4{enable-background:new    ;}
</style>
<g id="vect">
	<path class="st0" d="M198.61,419.96c1.58,0,2.97,1.21,2.23,4.27l-7.42,1.67C194.71,422.56,196.85,419.96,198.61,419.96
		 M202.7,431.94h-1.48c-1.86,2.23-3.81,3.9-5.75,3.9c-1.95,0-3.06-1.21-3.06-3.9c0-1.11,0.09-2.23,0.37-3.25l11.97-3.9
		c2.32-5.48-0.46-7.89-3.71-7.89c-5.66,0-12.07,9.37-12.07,17.63c0,3.71,1.76,5.75,4.55,5.75
		C196.57,440.2,199.91,437.04,202.7,431.94 M200.38,414.58l8.35-7.8v-0.93h-4.55l-5.2,8.72H200.38z M174.67,420.06h3.99l-6.31,17.17
		c-0.56,1.48,0.19,2.97,1.76,2.97c3.53,0,9.28-3.53,11.32-8.35h-1.21c-1.58,1.67-4.64,3.9-7.24,4.36l5.75-16.15h5.94l0.74-2.41
		h-5.75l2.23-6.22h-2.32l-4.08,6.22l-4.83,0.74V420.06z M169.28,419.31c0.37-0.93,0-1.95-0.84-2.32c-0.19-0.09-0.37-0.09-0.56-0.19
		c-3.43,0-7.52,3.06-9.19,7.42h1.11c1.11-1.58,2.97-3.34,4.73-3.62l-6.59,17.08c-0.46,0.84-0.09,1.86,0.74,2.32
		c0.19,0.09,0.46,0.19,0.65,0.19c3.25,0,7.05-3.16,8.72-7.42h-1.11c-1.11,1.58-2.97,3.34-4.73,3.62L169.28,419.31z M170.49,410.68
		c1.58,0,2.88-1.3,2.88-2.78l0,0c0-1.58-1.3-2.78-2.88-2.88c-1.58,0-2.78,1.3-2.88,2.78l0,0c0,1.58,1.21,2.78,2.69,2.78
		C170.49,410.68,170.49,410.68,170.49,410.68 M132.62,436.95c-0.84,1.95,0.09,3.16,1.95,3.16c1.02,0.19,1.95-0.56,2.13-1.58
		l4.55-12.07c2.13-2.6,6.4-5.29,8.17-5.29c1.3,0,1.11,1.02,0.28,2.6l-7.05,13.46c-0.56,0.93-0.19,2.13,0.74,2.69
		c0.28,0.19,0.65,0.28,0.93,0.28c3.43,0,7.52-3.06,9.19-7.42h-1.11c-1.11,1.58-2.97,3.34-4.73,3.62l6.03-12.16
		c0.65-1.3,1.11-2.69,1.11-4.18c0.19-1.67-1.02-3.06-2.6-3.25c-0.19,0-0.37,0-0.46,0c-2.97,0-5.94,3.34-9.56,7.52v-3.16
		c0-2.32-0.74-4.27-2.78-4.27c-1.3,0-2.51,1.11-3.71,2.69v0.46c2.23-0.09,3.25,3.25,1.67,6.78L132.62,436.95z M132.53,422.01
		c0.84-2.78,0.37-5.29-1.76-5.29c-2.51,0-3.16,1.95-5.75,7.52v-3.16c0-2.32-0.74-4.27-2.78-4.27c-2.41,0-4.55,3.71-6.31,7.42h1.11
		c1.11-1.67,2.23-2.69,3.06-2.69c1.02,0,1.58,1.58,0,5.1l-4.64,10.3c-0.84,1.95,0.09,3.16,1.95,3.16c1.02,0.19,1.95-0.56,2.13-1.58
		l4.55-12.07c1.3-1.58,2.41-2.97,3.9-4.55h4.55V422.01z M106.17,419.96c1.58,0,2.97,1.21,2.23,4.27l-7.42,1.67
		C102.28,422.47,104.41,419.96,106.17,419.96 M110.26,431.84h-1.48c-1.86,2.23-3.81,3.9-5.75,3.9s-3.06-1.21-3.06-3.9
		c0-1.11,0.09-2.23,0.37-3.25l11.88-3.9c2.32-5.48-0.46-7.89-3.71-7.89c-5.66,0-12.07,9.37-12.07,17.63c0,3.71,1.76,5.75,4.55,5.75
		C104.13,440.1,107.47,437.04,110.26,431.84 M82.14,420.06h3.99l-6.31,17.17c-0.56,1.48,0.19,2.97,1.76,2.97
		c3.53,0,9.28-3.53,11.32-8.35h-1.11c-1.58,1.67-4.64,3.9-7.24,4.36l5.75-16.15h5.85l0.74-2.41h-5.66l2.23-6.22h-2.23l-4.08,6.22
		l-4.83,0.74L82.14,420.06z M60.51,433.51c0-5.29,5.85-12.44,9.19-12.44c0.65,0,1.39,0.09,2.04,0.28l-3.43,9.19
		c-1.95,2.41-5.01,5.29-6.4,5.29C60.98,435.83,60.51,435.09,60.51,433.51 M78.61,415.88l-1.76-0.09l-2.04,1.95h-0.46
		c-9.84,0-18.28,11.04-18.28,19.03c-0.19,1.76,1.21,3.34,2.97,3.53c0.19,0,0.37,0,0.56,0c2.51,0,5.01-3.62,7.8-7.52l-0.09,1.39
		c-0.37,3.99,0.84,6.13,2.88,6.13c2.41,0,4.64-3.71,6.31-7.42h-1.11c-1.11,1.67-2.23,2.69-3.06,2.69s-1.58-1.67,0-5.1L78.61,415.88z
		 M57.73,422.1c0.84-2.78,0.37-5.29-1.76-5.29c-2.51,0-3.16,1.95-5.75,7.52v-3.16c0-2.32-0.74-4.27-2.78-4.27
		c-2.41,0-4.64,3.71-6.31,7.42h1.11c1.11-1.67,2.23-2.69,3.06-2.69c1.02,0,1.58,1.58,0,5.1l-4.64,10.3c-0.84,1.95,0,3.16,1.95,3.16
		c1.11,0,1.67-0.28,2.13-1.58l4.55-12.07c1.3-1.58,2.41-2.97,3.9-4.55h4.55V422.1z M24.78,439.36l0.46-1.3
		c-5.75-1.11-6.4-1.11-4.18-7.33l2.32-6.4h6.31c2.88,0,2.88,1.11,2.41,4.27h1.67l3.81-10.39h-1.67c-1.39,2.41-2.51,4.27-5.66,4.27
		h-6.22l3.34-9.1c1.02-2.88,1.67-3.53,5.48-3.53h2.78c3.99,0,4.45,1.11,4.45,5.1h1.58l1.3-7.05H19.3l-0.46,1.3
		c4.64,0.93,5.01,1.39,2.88,7.33l-5.1,14.2c-2.13,5.85-3.06,6.31-8.35,7.33l-0.37,1.3H24.78z"/>
	<path class="st0" d="M141.07,366.32c1.58,0,2.97,1.21,2.23,4.27l-7.33,1.67C137.27,368.83,139.4,366.32,141.07,366.32
		 M145.15,378.2h-1.48c-1.86,2.23-3.81,3.9-5.75,3.9s-3.06-1.21-3.06-3.9c0-1.11,0.09-2.23,0.37-3.25l11.88-3.9
		c2.32-5.48-0.46-7.89-3.71-7.89c-5.66,0-12.07,9.37-12.07,17.63c0,3.71,1.76,5.75,4.55,5.75
		C139.03,386.46,142.37,383.3,145.15,378.2 M142.74,360.84l8.35-7.8v-0.93h-4.55l-5.2,8.72H142.74z M117.03,366.41h3.99l-6.31,17.17
		c-0.56,1.48,0.19,2.88,1.76,2.88c3.53,0,9.37-3.53,11.32-8.35h-1.11c-1.58,1.67-4.64,3.9-7.24,4.36l5.75-16.15h5.85l0.74-2.41
		h-5.66l2.23-6.22h-2.23l-4.08,6.22l-4.83,0.65L117.03,366.41z M111.74,365.58c0.37-0.93,0-1.95-0.84-2.32
		c-0.19-0.09-0.37-0.09-0.56-0.19c-3.43,0-7.52,3.06-9.19,7.42h1.11c1.11-1.58,2.97-3.34,4.73-3.62l-6.59,17.08
		c-0.46,0.84-0.09,1.86,0.74,2.32c0.19,0.09,0.46,0.19,0.65,0.19c3.25,0,7.05-3.16,8.72-7.42h-1.11c-1.11,1.58-2.97,3.34-4.73,3.62
		L111.74,365.58z M112.95,356.95c1.58,0,2.88-1.21,2.88-2.78c0-1.58-1.21-2.88-2.78-2.88c-1.58,0-2.88,1.21-2.88,2.78
		c0,0,0,0,0,0.09C110.17,355.65,111.37,356.95,112.95,356.95C112.86,356.95,112.95,356.95,112.95,356.95 M90.12,382.65l11.97-31.46
		l-0.37-0.46l-7.52,0.84v0.93l1.48,1.11c1.3,1.02,0.93,2.04-0.28,5.2l-9.37,24.69c-0.56,0.93-0.19,2.13,0.74,2.69
		c0.28,0.19,0.65,0.28,0.93,0.28c3.43,0,7.05-3.06,8.72-7.42h-1.11C94.02,380.89,92.25,382.19,90.12,382.65 M67.29,379.78
		c0-5.29,5.94-12.44,9.19-12.44c0.65,0,1.39,0.09,2.04,0.28l-3.43,9.19c-1.95,2.41-5.01,5.38-6.4,5.38
		C67.84,382.1,67.29,381.45,67.29,379.78 M85.38,362.14l-1.86-0.09L81.49,364h-0.28c-9.84,0-18.28,11.04-18.28,19.03
		c-0.19,1.76,1.21,3.34,2.97,3.53c0.19,0,0.37,0,0.56,0c2.51,0,5.01-3.62,7.8-7.52l-0.09,1.39c-0.37,3.99,0.84,6.13,2.88,6.13
		c2.41,0,4.55-3.71,6.31-7.42h-1.11c-1.11,1.67-2.23,2.69-3.06,2.69s-1.58-1.67,0-5.1L85.38,362.14z M41.67,390.73
		c0-2.32,2.23-3.71,5.29-4.92c1.48,0.65,3.06,1.3,4.64,1.76c3.25,1.11,4.55,1.48,4.55,2.51c0,2.13-3.53,3.71-8.45,3.71
		C43.62,393.79,41.67,392.86,41.67,390.73 M50.58,376.81c-1.39,0-1.95-1.21-1.95-2.6c0-3.81,2.04-9.47,5.29-9.47
		c1.39,0,1.95,1.21,1.95,2.6C55.87,371.15,53.83,376.81,50.58,376.81 M59.86,388.59c0-2.78-2.41-3.71-6.4-4.92
		c-3.43-1.02-5.01-1.3-5.01-2.41c0-0.93,0.74-1.95,2.23-2.78c5.1-0.37,9.1-4.55,9.28-9.65c0-0.84-0.19-1.58-0.46-2.32h4.73
		l0.74-2.41h-7.52c-0.93-0.56-1.95-0.84-3.06-0.84c-5.29,0.09-9.56,4.27-9.84,9.47c-0.09,2.78,1.86,5.2,4.55,5.75
		c-2.78,1.21-4.36,2.69-4.36,4.45c0,0.93,0.37,1.76,1.11,2.32c-6.5,1.86-9,4.08-9,7.05s3.9,4.18,8.54,4.18
		C53.27,396.39,59.86,392.12,59.86,388.59 M29.79,370.22c2.88,0,2.88,1.11,2.41,4.27h1.67l3.81-10.39h-1.67
		c-1.39,2.41-2.51,4.27-5.66,4.27h-6.22l3.16-8.63c1.02-2.88,1.67-3.43,5.48-3.43h2.78c3.99,0,4.45,1.02,4.45,5.1h1.58l1.3-7.05
		H19.3l-0.46,1.3c4.64,0.93,5.01,1.39,2.88,7.33l-5.2,14.11c-2.13,5.94-3.06,6.4-8.35,7.33l-0.37,1.39h26.36l4.73-7.52h-1.76
		c-2.97,2.88-6.78,5.57-12.07,5.57c-6.96,0-6.31-0.28-3.99-6.68l2.51-6.87h6.22V370.22z M33.23,352.21l8.35-5.75v-0.93h-4.92
		l-4.64,6.68H33.23z"/>
	<path class="st0" d="M138.29,312.58c1.58,0,2.97,1.21,2.23,4.27l-7.42,1.76C134.39,315.09,136.52,312.58,138.29,312.58
		 M142.37,324.46h-1.48c-1.86,2.23-3.81,3.9-5.75,3.9s-3.06-1.21-3.06-3.9c0-1.11,0.09-2.23,0.37-3.25l11.97-3.9
		c2.32-5.48-0.46-7.89-3.71-7.89c-5.66,0-12.07,9.37-12.07,17.63c0,3.71,1.76,5.75,4.55,5.75
		C136.24,332.72,139.59,329.57,142.37,324.46 M139.96,307.2l8.35-7.8v-0.93h-4.55l-5.2,8.72H139.96z M115.36,312.68h3.16
		l-6.31,17.17c-0.56,1.48,0.19,2.88,1.76,2.88c3.53,0,9.28-3.53,11.32-8.35h-1.11c-1.58,1.67-4.64,3.9-7.24,4.36l5.75-16.15h5.85
		l0.74-2.41h-5.75l2.23-6.22h-2.23l-4.08,6.22l-4.08,0.65V312.68z M112.3,314.62c0.84-2.78,0.37-5.2-1.76-5.2
		c-2.51,0-3.16,1.95-5.75,7.52v-3.16c0-2.32-0.74-4.27-2.78-4.27c-2.41,0-4.64,3.71-6.31,7.42h1.11c1.11-1.67,2.23-2.69,3.06-2.69
		c1.02,0,1.58,1.58,0,5.1l-4.64,10.3c-0.84,1.95,0,3.16,1.95,3.16c1.11,0,1.67-0.28,2.13-1.58l4.55-12.07
		c1.3-1.58,2.41-2.97,3.9-4.55H112.3z M85.85,312.49c1.58,0,2.97,1.21,2.23,4.27l-7.42,1.76C81.95,315.09,84.18,312.49,85.85,312.49
		 M89.93,324.46h-1.48c-1.86,2.23-3.81,3.9-5.75,3.9c-1.95,0-3.06-1.21-3.06-3.9c0-1.11,0.09-2.23,0.37-3.25l11.88-3.9
		c2.32-5.48-0.46-7.89-3.71-7.89c-5.66,0-12.07,9.37-12.07,17.63c0,3.71,1.76,5.75,4.55,5.75
		C83.81,332.72,87.15,329.57,89.93,324.46 M60.79,329.29c-1.11,0-2.78-1.11-2.78-2.04c0.28-1.11,0.65-2.23,1.11-3.34l1.95-5.1
		c2.04-2.41,5.2-5.1,6.96-5.1c1.11,0,1.86,0.65,1.86,2.32C69.89,320.75,65.52,329.29,60.79,329.29 M74.34,314.16
		c0-3.53-1.3-4.73-3.71-4.73c-2.97,0-5.85,3.16-8.72,7.05l7.24-18.84l-0.37-0.46l-7.52,0.84v0.93l1.48,1.11
		c1.3,1.02,0.93,2.13-0.28,5.2l-7.7,19.95c-0.56,1.21-0.93,2.41-1.21,3.62c0,2.04,2.78,3.99,5.29,3.99
		C64.6,332.82,74.34,322.24,74.34,314.16 M50.95,311.93c0.37-0.93,0-1.95-0.84-2.32c-0.19-0.09-0.37-0.09-0.56-0.19
		c-3.43,0-7.52,3.06-9.19,7.42h1.11c1.11-1.58,2.97-3.34,4.73-3.62l-6.59,17.08c-0.46,0.84-0.09,1.86,0.74,2.32
		c0.19,0.09,0.46,0.19,0.65,0.19c3.25,0,7.05-3.16,8.72-7.42h-1.02c-1.11,1.58-2.97,3.34-4.73,3.62L50.95,311.93z M52.16,303.3
		c1.58,0,2.88-1.3,2.88-2.88s-1.3-2.88-2.88-2.88c-1.58,0-2.88,1.3-2.88,2.88l0,0C49.37,302,50.58,303.3,52.16,303.3 M34.9,300.52
		H19.21l-0.46,1.3c4.64,0.93,5.01,1.39,2.88,7.33l-5.1,14.11c-2.13,5.85-3.06,6.4-8.35,7.33l-0.37,1.39h23.85l5.2-9.19h-1.86
		c-2.97,3.25-6.31,7.24-11.69,7.24c-3.99,0-4.45-0.65-2.32-6.68l5.1-14.11c2.13-5.85,3.06-6.4,8.35-7.33L34.9,300.52z"/>
	<path class="st1" d="M99.77,68.59c0.84-0.84,1.67-1.76,2.51-2.6l0,0c1.48-1.76,3.16-3.43,4.92-5.01c0.46-0.46,1.02-0.93,1.58-1.3
		c0.19-0.19,0.19-0.46,0.28-0.56c-0.74,0.28-1.21,0.93-1.95,1.21c-0.19,0-0.28-0.19-0.19-0.28l1.58-1.21h-0.09
		c-0.19,0-0.19-0.19-0.19-0.28c-1.95-0.28-3.34,1.02-4.73,2.23c-0.28,0.19-0.56-0.19-0.74-0.19c-2.23,0.74-3.81,2.69-6.03,3.53
		v-0.28c-0.93,0.28-1.76,0.84-2.69,1.02c-1.21,0.19-2.51,0.28-3.71,0.09c-1.76,0.19-3.62,0.56-5.38,0.93h-0.19
		c-0.93,0.28-1.86,0.65-2.69,1.11l-0.09,0.09l-0.19,0.28c-0.28,0.37-0.65,0.65-1.02,0.93c-0.84,0.56-1.67,1.11-2.41,1.86
		c-0.09,0.09-0.19,0.09-0.28,0.09c-0.84,0.74-1.58,1.48-2.41,2.23c-0.19,0.09-0.28,0.09-0.46,0.09l0,0l0.09-0.09l0.37-0.65
		c0.09-0.19,0.28-0.46,0.46-0.65c0.19-0.19,0.37-0.65,0.65-0.93c0.09-0.09,0.09-0.09,0-0.19l0,0c-0.09-0.09-0.09-0.09-0.19-0.09
		c0.74-0.74,1.58-1.3,2.51-1.86l0,0c-0.09,0-0.28,0-0.19-0.19c0.09-0.19,0.19-0.28,0.28-0.37c0.09-0.09,0-0.09,0.09-0.09l-0.09-0.09
		c-0.28,0.19-0.46,0.28-0.65,0.46c-0.37,0.28-0.65,0.93-1.21,0.93c-0.09,0-0.19,0-0.19,0c-0.09,0-0.09,0-0.19-0.09l0,0v-0.09l0,0
		l0.09-0.09c0,0,0-0.09,0.09-0.09l0.09-0.09c0-0.09,0.09-0.09,0.09-0.19l0.09-0.09l0.19-0.37l0.09-0.19
		c0.09-0.09,0.09-0.19,0.19-0.28c0.09-0.09,0-0.19,0-0.28c0,0,0,0-0.09,0c0.28-0.37,0.65-0.65,1.02-0.93H78.7
		c0.56-0.28,1.11-0.65,1.67-0.93l0.28-0.19c-0.84,0.28-1.58,0.65-2.32,1.11c-0.09,0-0.19,0.09-0.28,0.09s-0.28,0-0.37-0.09v-0.09
		c0.19-0.28,0.56-0.46,0.93-0.74c0.19,0,0.28,0,0.28,0.19c4.73-3.71,11.14-2.78,16.61-4.73l1.3-0.84c0.74-0.28,1.3-1.02,2.23-1.48
		c1.21-0.84,2.04-2.04,2.51-3.34c0-0.09-0.09-0.19-0.09-0.28c-1.86,2.04-4.08,3.62-6.5,4.83c-3.06,1.58-6.5,1.3-9.75,1.76
		c0.19-0.28,0.46-0.28,0.74-0.28c0-0.46,0.28-0.56,0.56-0.84h0.46c0.09,0,0.09-0.28,0.28-0.28c0.28,0,0.74-0.19,0.56-0.19
		c-0.46-0.56-1.3,0.46-2.04,0c0.28-0.28,0.19-0.74,0.46-0.93h0.56c0-0.19,0.09-0.46,0.28-0.56c2.23-1.3,4.27-2.32,6.31-3.53
		c-0.46,0-0.74,0.46-1.21,0.19c0.28,0,0-0.46,0.28-0.46c1.58-0.46,2.97-1.3,4.55-1.95c-0.56,0-1.02,0.46-1.58,0
		c0.28-0.09,0.46-0.46,0.93-0.46v-0.46c0-0.09,0.19-0.09,0.28-0.09c-0.09,0-0.19-0.09-0.28-0.19c0.19-0.28,0.56-0.19,0.84-0.46
		c-0.19,0-0.46,0-0.46-0.19c0.46-0.56,1.21-0.84,1.95-0.84c-0.19-0.28-0.56,0-0.56-0.28c0-0.09,0.19-0.09,0.28-0.09H98.1
		c-0.28-0.19-0.19-0.46-0.19-0.56c0.93-1.02,0.93-2.32,1.3-3.53c-0.19,0-0.28,0-0.28-0.19c-1.48,1.58-3.81,2.23-6.03,2.78h-0.74
		c-0.84,0.28-1.76,0.28-2.51-0.19c-0.56-0.37-1.02-0.74-1.48-1.21c-1.11-0.74-2.41-1.3-3.71-1.76c-3.62-1.21-7.52-1.76-11.32-1.58
		c1.58-0.93,3.43-0.93,5.1-1.48c2.51-0.74,4.83-1.67,7.52-1.48c-0.46-0.09-1.02-0.09-1.48,0c-2.04-0.19-4.08,0.46-6.31,0.93
		c-1.48,0.28-2.78,0.84-4.27,1.21c-0.93,0.28-1.3,1.21-2.32,1.02v-0.46c1.48-1.76,3.25-3.53,5.57-3.71c2.69-0.46,5.1,0,7.8,0.28
		c1.86,0.19,3.71,0.56,5.57,1.02c0.74,0,0.84,1.21,1.48,1.3c0.93,0.28,1.76,0,2.69,0.56c0-0.28-0.19-0.56,0-0.84
		c0.56-0.56,1.3,0.19,1.95-0.19c1.21-0.74-1.02-2.04-1.67-3.06c0-0.09,0.09-0.19,0.19-0.28c1.21,1.02,2.04,2.23,3.53,2.97
		c0.74,0.28,2.51,0.74,2.23-0.19c-0.74-1.58-2.23-2.97-3.34-4.45v-0.56c-0.28,0-0.28-0.19-0.46-0.28V34.9
		c-0.56-0.28-0.46-0.93-0.74-1.3c-0.46-0.74-0.19-1.76-0.46-2.6c-0.28-0.84-0.46-1.67-0.56-2.51c-0.46-2.51-1.02-4.73-1.3-7.05
		c-0.28-2.78,1.67-5.01,2.97-7.52c0.93-1.86,2.41-3.53,4.08-4.73c0.56-1.76,1.58-3.34,2.78-4.73c1.3-1.3,2.78-2.32,4.55-2.97
		c1.3-0.56,2.6-1.11,3.9-1.48H11.32v77.87h71.46c2.78-2.04,5.57-2.97,9.47-4.92C94.11,71.93,98.38,69.98,99.77,68.59z M77.22,58.01
		c-0.28,0-0.84,0.09-0.74-0.19c0.09-0.74,1.21-0.74,1.76-1.02c0.28-0.19,0.74-0.46,1.02-0.28c0.28,0.46,0.74,0.28,1.02,0.56
		C79.35,58.01,78.24,57.54,77.22,58.01L77.22,58.01z M54.66,54.76c-0.09-0.09-0.09-0.19-0.19-0.28c1.86-2.32,3.34-4.83,4.73-7.52
		c1.86-1.11,3.53-2.51,5.01-4.08c2.32-2.69,5.1-4.83,8.26-6.5c1.3-0.37,2.6-0.37,3.81,0.19c-0.46,0.56-1.21,0.46-1.76,0.93
		c-0.19,0-0.28,0-0.46-0.19c0.09-0.09,0.19-0.28,0.19-0.46c-1.48,1.67-3.53,2.32-4.73,4.27c-0.93,1.48-1.48,3.34-3.34,3.81
		c-0.56,0.19,0.19-0.46-0.19-0.28C61.44,47.43,58.19,50.77,54.66,54.76L54.66,54.76z M66.92,45.11c-0.09,0.28-0.28,0.37-0.46,0.56
		c-0.09,0.28-0.37,0.46-0.56,0.56c-0.09,0-0.28,0-0.28-0.19c0.09-0.65,0.56-1.11,1.21-1.3C66.92,44.73,66.92,44.92,66.92,45.11
		L66.92,45.11z M73.69,67.1c-0.09,0.19-0.19,0.28-0.37,0.46c0.19,0,0.28,0.09,0.19,0.19c-0.28,0.37-0.65,0.56-1.11,0.74h-0.19
		l-0.56,0.56c-0.19,0.19-1.02,0-0.74-0.19c0.37-0.37,0.74-0.74,1.11-1.02c0.19-0.19,0.46-0.37,0.65-0.56
		c0.09-0.09,0.19-0.19,0.28-0.37C73.04,66.92,73.78,66.82,73.69,67.1z M71.09,65.89L71.09,65.89c-0.56,0.37-1.11,0.74-1.67,1.11
		c-0.56,0.37-1.3,0.65-1.95,0.93l0,0c-0.09-0.09-0.19-0.09-0.28-0.09c-0.56,0.28-1.02,0.65-1.48,1.11l-0.19,0.19l0,0l-0.19,0.19l0,0
		l0,0c-0.09,0.09-0.19,0.19-0.28,0.37c-0.09,0.09-0.09,0.19-0.19,0.19c-0.09,0.09-0.37,0.09-0.37-0.09l0,0l-0.28,0.09l-0.19,0.09
		h-0.09h-0.09l-0.56,0.46c-0.28,0.28-0.56,0.56-0.84,0.93l0,0l0,0v0.09l-0.09,0.09l0,0l-0.09,0.19l0,0l-0.09,0.09
		c0,0,0-0.09-0.09-0.09v-0.09c0-0.09-0.09-0.19-0.09-0.28l0,0v-0.09l0.46-0.56l0,0l0.19-0.19l0.28-0.28l0.09-0.09
		c0.19-0.19,0.28-0.37,0.46-0.65l0,0l0.09-0.09c0.09-0.09,0.19-0.19,0.19-0.28l0.19-0.28l0,0l0,0v-0.09
		c0.09-0.09,0.09-0.19,0.09-0.37l0,0v-0.09c0-0.09,0-0.09,0-0.19l0,0l0,0c0-0.09,0-0.19,0-0.19v-0.09c0.19-0.28,0.37-0.56,0.56-0.84
		h-0.19c-0.19,0.09-0.37,0.37-0.56,0.46s-0.46-0.09-0.28-0.19c0.19-0.09,0.19-0.19,0.37-0.28c0.19-0.09,0,0,0,0
		c0.19-0.28,0.46-0.56,0.74-0.74c0.19-0.09,0.28-0.19,0.46-0.37l0.09-0.09c0.09-0.09,0.19-0.28,0.37-0.37l0,0
		c1.39-1.39,3.81-1.3,5.66-2.13c0.74-0.28,1.58,0.19,2.32,0c0.46,0,0.93,0.09,1.3,0.28C73.51,64.32,72.3,65.15,71.09,65.89
		L71.09,65.89z M74.06,55.69c-0.19-0.19,0.46,0,0.56-0.28h-1.11c-0.19,0-0.19-0.19-0.19-0.28c-0.74,0.09-1.67,0.46-2.32,0.56
		c-1.02,0.28-1.95,1.02-3.06,1.3c-1.58,0.56-2.97,1.95-4.73,2.51c-0.19,0-0.19-0.19-0.19-0.28c0.19-0.46,0.74-0.56,1.02-1.02
		c0-0.09,0-0.28-0.19-0.28c1.21-1.67,2.78-2.51,4.27-3.81v-0.46c0.46-0.56,1.21-0.93,1.48-1.58c0.28-0.65,0.84-1.11,1.48-1.3
		c-0.19-0.19-0.46-0.19-0.46-0.46c-0.56,0-1.21,0.28-1.76-0.19c0.28-0.28,0.56-0.46,0.93-0.56c-0.09,0-0.28-0.09-0.37-0.19
		c-0.19-0.28,0.28-0.65,0.74-0.74c0.46-0.09,1.3-0.19,1.76-0.56c-1.02-0.19-2.23,0.28-3.25-0.28c0.65-1.86,1.95-3.43,3.71-4.45
		c0.09,0,0.46,0,0.46,0.19c0,0.74-0.46,1.3-1.21,1.49c1.21,0.19,2.41,0.46,3.53,0.84c-0.19,0.28-0.46,0.19-0.56,0.19
		c0.74,0.46,1.67,0.19,2.32,0.74c-0.46,0.46-0.84,0-1.3,0c4.55,1.3,9.37,2.32,13.27,5.29c-3.25,1.48-6.68,2.51-10.12,3.06
		c-0.37,0-0.84,0-1.21-0.19c0,0.19,0,0.46-0.19,0.46c-0.46-0.09-1.02,0-1.48,0.28C75.45,56.06,74.71,56.06,74.06,55.69L74.06,55.69z
		"/>
	<path class="st2" d="M221.72,0.19h-83.71c0.28,0.09,0.56,0.19,0.84,0.37l2.13,1.11c1.11,0.56,2.04,1.3,2.78,2.32
		c0.28,0.46,0.74,1.3,0.46,1.95c-0.28,0.74-0.46,1.95-1.21,2.23c-1.02,0.37-2.04,0.46-3.06,0.28c-0.56,0-1.21-0.09-1.76-0.28
		c2.23,0.93,4.27,1.95,5.75,3.99c0.19,0.28,0.74,0.46,1.3,0.46c0.09,0,0.09,0.28,0.09,0.46c-0.28,0.28-0.56,0.46-0.46,0.93h0.46
		c0.74-0.28,0.56-1.76,1.67-1.3c0.74,0.46,1.02,1.39,0.56,2.23c-0.56,0.56-1.11,1.02-1.76,1.48c-0.19,0.37-0.19,0.74,0,1.02
		c0.37,0.56,0.65,1.11,0.74,1.76c0.46,1.02,0.56,2.23,1.02,3.25c0.74,2.13,1.02,4.36,1.02,6.59c0,1.21-0.56,2.23-0.19,3.34
		c0.37,1.11,0.93,2.13,1.67,3.06c0.56,0.74,1.11,1.58,1.58,2.32c0.93,1.48,2.51,2.97,1.76,4.73c-0.46,1.02-2.04,0.93-3.06,1.48
		c-0.84,0.74-0.19,1.95,0.28,2.69c0.74,1.3-0.93,2.23-1.95,2.69c0.28,0.46,0.84,0.28,1.02,0.56c0.19,0.74,0.93,1.21,0.46,1.95
		c-0.56,0.84-2.32,1.3-1.48,2.69c0.56,1.02,0.19,2.13-0.19,3.25c-0.46,1.11-1.48,1.95-2.69,2.23c-0.93,0.28-1.86,0.28-2.78,0.19
		c-0.28-0.19-0.56-0.28-0.84-0.28c-2.51-0.28-5.01-1.02-7.52-1.02c-0.74,0.09-1.39,0.28-2.04,0.56c-0.65,0.46-1.21,1.02-1.76,1.58
		l0,0l-0.37,0.37l-0.19,0.19l-0.09,0.19c-0.46,0.56-0.84,1.11-1.11,1.67l-0.09,0.09c0,0.09-0.09,0.09-0.09,0.19
		c-0.46,0.84-0.84,1.76-1.11,2.69c-1.02,3.34-0.56,6.22,0.09,6.96c0.19,0.19,4.83,1.67,8.07,3.06c1.21,0.46,2.32,1.11,3.43,1.76
		h82.23L221.72,0.19z"/>
	<path class="st3" d="M143.02,26.45c0.56,0.19,1.48,0.19,1.48,0.46c-0.28,1.21-2.04,1.48-2.97,2.69h-0.46
		c-0.46,0.28-0.28,1.02-0.74,1.02c-0.46-0.09-0.93-0.09-1.3,0.19c0.56,0.65,1.39,1.02,2.23,0.93c0.28,0.09,0.46,0.28,0.46,0.56
		c0.09,0,0.19-0.09,0.28-0.19c0.19,0,0.28,0,0.28,0.19v0.56c-0.46,0.56-1.21,0.28-1.76,0.46c1.11,0.28,2.23,0.28,3.34,0
		c0.93-0.28,0-1.76,0.56-2.51c-0.28,0,0-0.46-0.28-0.46c0.28-0.28,0.56-0.74,0.84-0.93c0.37,0,0.65-0.19,0.84-0.46
		c0-0.28-0.56-0.46-0.46-0.74c0.93-0.56,1.58-1.48,1.3-2.32c-0.19-0.46-1.3-0.46-2.04-0.74c-0.84-0.19-1.67-0.09-2.51,0.19
		c-0.74,0.09-1.48,0.37-2.23,0.56c-1.02,0.37-1.95,0.84-2.78,1.48c1.02-0.37,2.13-0.74,3.25-0.93
		C141.35,26.27,142.18,26.27,143.02,26.45z"/>
</g>
<g id="zone">
	<g class="st4">
		<path class="st0" d="M22.18,114.62h15.5l22.09,58.47H47.15l-5.57-15.22H18.19l-5.57,15.22H0L22.18,114.62z M37.96,147.75l-7.98-22
			l-7.98,22H37.96z"/>
	</g>
	<g class="st4">
		<path class="st0" d="M109.7,155.64l9.37,7.15c-5.38,7.24-14.01,11.97-24.59,11.97c-18.47,0-31.09-14.2-31.09-30.91
			s12.62-30.91,31.09-30.91c10.58,0,19.3,4.73,24.59,11.88l-9.37,7.24c-3.34-4.73-8.63-7.98-15.31-7.98
			c-11.04,0-18.84,8.63-18.84,19.77c0,11.14,7.89,19.77,18.84,19.77C101.07,163.62,106.36,160.38,109.7,155.64z"/>
	</g>
	<g class="st4">
		<path class="st0" d="M144.5,114.62H160l22.09,58.47h-12.62l-5.57-15.22h-23.3l-5.57,15.22h-12.62L144.5,114.62z M160.28,147.75
			l-7.98-22l-7.98,22H160.28z"/>
		<path class="st0" d="M192.02,114.62h22.92c18.56,0,31.09,13.46,31.09,29.24s-12.53,29.24-31.09,29.24h-22.92V114.62z
			 M203.9,125.39v36.94h11.23c10.86,0,18.75-8.07,18.75-18.47c0-10.39-7.89-18.47-18.75-18.47H203.9z"/>
		<path class="st0" d="M258.38,114.62h34.06v10.12h-22.18v13.55h18.84v10.12h-18.84v14.57h22.18v10.12h-34.06V114.62z
			 M269.89,109.61l9.47-11.23h12.16l-10.86,11.23H269.89z"/>
		<path class="st0" d="M307.01,114.62h14.94l14.11,24.04l14.11-24.04h15.04v58.47h-11.88v-41.58l-12.99,21.53h-8.35l-12.99-21.53
			v41.58h-11.88v-58.47H307.01z"/>
		<path class="st0" d="M382.28,114.62h11.88v58.47h-11.88V114.62z"/>
		<path class="st0" d="M411.43,114.62h34.06v10.12H423.3v13.55h18.84v10.12H423.3v14.57h22.18v10.12h-34.06V114.62z"/>
	</g>
	<g class="st4">
		<path class="st0" d="M7.33,199.26h22.92c18.56,0,31.09,13.46,31.09,29.24s-12.53,29.24-31.09,29.24H7.33V199.26z M19.21,210.03
			v36.94h11.23c10.86,0,18.75-8.07,18.75-18.47s-7.89-18.47-18.75-18.47H19.21z"/>
		<path class="st0" d="M73.69,199.26h34.06v10.12H85.57v13.46h18.84v10.12H85.57v14.57h22.18v10.12H73.69V199.26z"/>
		<path class="st0" d="M144.97,199.26h14.94l14.11,24.04l14.11-24.04h14.94v58.47h-11.88v-41.58l-12.99,21.53h-8.35l-12.99-21.53
			v41.58h-11.88V199.26L144.97,199.26z"/>
		<path class="st0" d="M277.22,228.5c0,16.71-12.62,30.91-31,30.91c-18.47,0-31.09-14.2-31.09-30.91s12.62-30.91,31.09-30.91
			C264.6,197.59,277.22,211.79,277.22,228.5z M265.06,228.5c0-11.23-7.89-19.77-18.75-19.77c-11.04,0-18.84,8.63-18.84,19.77
			c0,11.23,7.89,19.77,18.84,19.77C257.18,248.27,265.06,239.63,265.06,228.5z"/>
		<path class="st0" d="M289.47,199.26h15.22l26.17,41.86v-41.86h11.88v58.47h-15.22l-26.17-42.04v42.04h-11.88V199.26z"/>
		<path class="st0" d="M353.79,199.26h47.98v10.77h-18.01v47.7h-11.88v-47.7h-18.01v-10.77H353.79z"/>
		<path class="st0" d="M413.1,199.26h19.3c12.9,0,20.7,6.59,20.7,17.45c0,10.77-7.89,17.36-20.7,17.36h-7.42v23.67H413.1V199.26z
			 M424.88,209.38v14.57h7.89c5.01,0,7.98-2.69,7.98-7.42c0-4.45-2.97-7.15-7.98-7.15H424.88z"/>
		<path class="st0" d="M463.68,199.26h34.06v10.12h-22.18v13.46h18.84v10.12h-18.84v14.57h22.18v10.12h-34.06V199.26z"/>
		<path class="st0" d="M512.4,199.26h11.88v47.7h22.18v10.77H512.4V199.26z"/>
		<path class="st0" d="M557.69,199.26h11.88v47.7h22.18v10.77h-34.06V199.26z"/>
		<path class="st0" d="M603.08,199.26h11.88v58.47h-11.88V199.26z"/>
		<path class="st0" d="M632.13,199.26h34.06v10.12h-22.18v13.46h18.84v10.12h-18.84v14.57h22.18v10.12h-34.06V199.26z"/>
		<path class="st0" d="M680.85,199.26h17.91c12.9,0,20.79,6.59,20.79,17.45c0,7.05-3.43,12.25-9.37,15.13l18.38,25.89h-14.2
			l-15.5-23.67h-6.13v23.67h-11.88V199.26L680.85,199.26z M692.73,209.38v14.57h6.68c5.01,0,7.89-2.69,7.89-7.42
			c0-4.45-2.97-7.15-7.89-7.15H692.73z"/>
	</g>
</g>
</svg>
